<?xml version="1.0" standalone="no"?>
<!DOCTYPE svg PUBLIC "-//W3C//DTD SVG 20010904//EN"
 "http://www.w3.org/TR/2001/REC-SVG-20010904/DTD/svg10.dtd">
<svg version="1.0" xmlns="http://www.w3.org/2000/svg"
 width="512.000000pt" height="512.000000pt" viewBox="0 0 512.000000 512.000000"
 preserveAspectRatio="xMidYMid meet">
<metadata>
Created by potrace 1.14, written by Peter Selinger 2001-2017
</metadata>
<g transform="translate(0.000000,512.000000) scale(0.100000,-0.100000)"
fill="#000000" stroke="none">
<path d="M1033 5033 c-458 -306 -805 -677 -924 -987 -63 -164 -81 -345 -48
-474 45 -175 164 -328 319 -411 169 -91 407 -93 574 -7 52 27 76 23 76 -14 0
-41 -65 -175 -149 -304 -68 -105 -76 -136 -42 -169 21 -21 26 -21 358 -19 364
4 364 3 377 57 5 19 -8 46 -55 117 -92 140 -165 300 -152 334 7 20 22 18 105
-15 90 -37 112 -41 213 -48 168 -10 343 56 464 175 234 232 257 555 66 908
-157 288 -443 572 -870 863 -84 57 -132 81 -163 81 -10 0 -77 -39 -149 -87z"/>
<path d="M3840 5107 c-9 -6 -49 -52 -89 -102 -41 -49 -79 -94 -85 -100 -6 -5
-22 -23 -35 -40 -94 -122 -452 -482 -657 -661 -100 -87 -113 -98 -196 -164
-31 -25 -64 -59 -74 -76 -25 -46 -6 -83 75 -147 296 -234 712 -649 990 -989
63 -77 88 -95 126 -89 31 5 46 19 151 146 54 66 103 125 109 131 290 320 584
603 825 794 89 70 96 81 90 135 -3 27 -13 39 -105 113 -300 241 -713 653 -930
927 -85 106 -112 131 -148 133 -17 1 -39 -4 -47 -11z"/>
<path d="M3778 2194 c-85 -20 -151 -57 -216 -122 -216 -215 -173 -568 88 -727
31 -19 63 -42 72 -52 17 -19 61 -158 72 -230 13 -85 -55 -98 -120 -24 -13 14
-24 30 -24 35 0 11 -59 86 -90 114 -209 192 -516 165 -684 -59 -234 -311 -2
-750 387 -735 116 4 202 41 305 131 13 11 43 50 67 86 70 106 133 141 155 84
28 -75 -80 -369 -203 -553 -54 -82 -58 -98 -34 -130 14 -18 636 -18 659 1 27
21 28 44 3 79 -132 183 -234 426 -239 567 -3 97 73 76 153 -42 131 -195 330
-269 536 -200 87 29 137 61 197 125 83 89 122 189 122 313 -1 197 -117 361
-309 435 -84 32 -225 33 -307 1 -82 -32 -170 -100 -215 -167 -80 -120 -139
-160 -173 -119 -14 17 -3 89 30 205 21 70 41 94 120 145 210 134 277 400 154
619 -58 104 -198 203 -318 225 -75 14 -116 13 -188 -5z"/>
<path d="M550 2045 c-125 -28 -219 -78 -305 -160 -103 -99 -157 -198 -192
-350 -2 -11 -4 -63 -4 -115 0 -396 320 -850 901 -1276 159 -117 187 -134 232
-140 40 -6 49 -2 123 48 89 60 227 160 235 169 3 3 48 41 100 84 200 165 414
398 517 564 33 53 116 220 132 264 55 161 65 369 21 487 -60 162 -138 259
-279 347 -105 64 -198 88 -342 86 -131 -1 -285 -59 -379 -143 -94 -84 -136
-85 -225 -6 -50 45 -160 106 -227 127 -77 25 -231 32 -308 14z"/>
</g>
</svg>
